<?xml version="1.0" standalone="no"?>
<!DOCTYPE svg PUBLIC "-//W3C//DTD SVG 20010904//EN"
 "http://www.w3.org/TR/2001/REC-SVG-20010904/DTD/svg10.dtd">
<svg version="1.0" xmlns="http://www.w3.org/2000/svg"
 width="273.000000pt" height="273.000000pt" viewBox="0 0 273.000000 273.000000"
 preserveAspectRatio="xMidYMid meet">
<metadata>
Created by potrace 1.14, written by Peter Selinger 2001-2017
</metadata>
<g transform="translate(0.000000,273.000000) scale(0.100000,-0.100000)"
fill="#000000" stroke="none">
<path d="M2459 2662 c-1 -4 -1 -11 0 -16 1 -5 -6 -6 -16 -2 -16 6 -17 5 -1 -7
11 -9 13 -18 7 -29 -6 -11 -5 -19 2 -24 8 -5 9 -3 4 6 -5 8 -4 11 2 7 6 -4 9
4 7 18 -1 16 2 23 8 19 7 -4 8 -2 4 4 -4 7 -3 12 2 12 6 0 12 -7 16 -15 3 -8
0 -14 -6 -12 -6 1 -13 -4 -15 -10 -3 -7 2 -13 11 -13 8 0 17 -4 20 -9 4 -5 -2
-7 -12 -4 -10 2 -24 -3 -31 -11 -9 -11 -10 -16 -2 -16 6 0 11 -5 11 -11 0 -8
-5 -7 -16 1 -13 11 -16 10 -21 -8 -3 -12 -10 -22 -15 -22 -5 0 -6 5 -3 10 8
12 -5 13 -24 1 -11 -7 -10 -11 5 -20 24 -13 9 -14 -17 -1 -13 7 -25 8 -37 1
-10 -7 -12 -11 -4 -11 7 0 10 -5 7 -10 -4 -6 -10 -8 -15 -5 -10 6 -25 -14 -16
-22 3 -4 14 2 25 11 13 12 21 14 26 6 3 -5 11 -7 17 -4 7 4 8 2 4 -5 -4 -6
-11 -9 -16 -6 -5 3 -11 1 -15 -5 -4 -6 -11 -8 -16 -5 -16 11 -10 -7 9 -22 16
-13 15 -13 -3 -4 -16 7 -25 4 -42 -15 -12 -14 -22 -27 -22 -30 0 -2 -2 -10 -5
-17 -3 -6 -4 -1 -2 13 2 14 -2 34 -10 45 -8 10 -14 14 -14 9 0 -6 5 -15 12
-22 16 -16 -4 -16 -22 1 -11 9 -11 8 0 -7 14 -18 13 -19 -3 -13 -11 4 -16 3
-12 -3 3 -6 2 -10 -3 -10 -10 0 -9 -30 2 -48 4 -6 2 -12 -3 -12 -9 0 -14 11
-13 30 0 3 -6 11 -14 18 -12 11 -13 9 -11 -10 1 -14 -3 -22 -10 -21 -7 2 -10
-4 -7 -12 4 -8 10 -15 16 -15 5 0 7 -4 3 -9 -3 -5 3 -12 12 -14 16 -4 16 -5 1
-6 -9 0 -24 9 -33 22 -14 19 -16 19 -13 3 2 -10 -3 -21 -11 -24 -8 -3 -11 0
-7 6 7 12 -19 10 -31 -2 -4 -4 -3 -6 2 -4 6 2 11 -1 12 -7 1 -5 -6 -9 -15 -7
-14 2 -15 1 -2 -7 8 -5 18 -7 23 -4 5 3 3 -4 -5 -16 -7 -12 -17 -21 -21 -21
-5 0 -7 -6 -4 -13 3 -7 -3 -13 -14 -13 -12 0 -15 4 -9 12 6 6 6 15 2 19 -4 5
-2 5 4 2 7 -4 17 0 24 8 9 10 9 15 1 15 -6 0 -11 -5 -11 -11 0 -5 -4 -8 -8 -5
-4 2 -14 1 -22 -5 -11 -6 -12 -9 -2 -9 7 0 10 -5 7 -10 -4 -7 -14 -6 -28 1
-21 10 -21 10 -2 -6 19 -15 19 -16 1 -33 -18 -16 -19 -16 -13 1 4 10 3 16 -2
12 -11 -6 -8 -65 4 -86 4 -8 -1 -5 -12 6 -13 13 -17 24 -11 31 5 7 4 14 -5 17
-14 5 -17 -19 -5 -38 3 -6 0 -19 -8 -30 -8 -10 -14 -14 -14 -9 0 6 6 16 13 23
10 12 9 13 -7 7 -10 -3 -26 -1 -34 6 -13 11 -14 11 -7 -1 6 -11 4 -13 -11 -8
-17 6 -17 6 -3 -5 9 -7 14 -20 11 -28 -5 -13 -3 -13 13 0 14 11 12 6 -5 -17
-13 -18 -26 -31 -28 -28 -3 2 1 11 7 19 10 12 9 14 -5 12 -9 -1 -21 -10 -26
-19 -5 -10 -13 -15 -18 -12 -4 3 -7 -2 -6 -12 2 -9 11 -20 22 -25 14 -6 13 -7
-8 -3 -23 4 -26 2 -22 -18 4 -21 4 -21 -6 1 -5 13 -7 29 -4 35 3 7 -2 3 -10
-7 -9 -11 -16 -24 -16 -28 0 -5 -10 -4 -22 2 -22 11 -22 11 -3 -5 18 -14 21
-14 32 2 7 9 13 12 13 6 0 -7 -5 -15 -10 -18 -6 -4 -8 -11 -4 -16 3 -5 0 -8
-8 -7 -7 2 -12 -3 -10 -10 1 -8 -2 -11 -8 -7 -6 3 -8 10 -5 15 3 4 -1 13 -9
19 -10 8 -16 5 -25 -15 -6 -14 -9 -29 -6 -34 3 -5 1 -11 -5 -15 -5 -3 -10 -2
-10 3 0 5 -7 9 -16 9 -15 0 -15 -2 1 -13 19 -14 41 -9 49 12 4 10 2 12 -6 8
-8 -5 -9 -2 -5 10 4 10 7 20 7 22 0 2 4 4 9 4 12 0 7 -40 -7 -66 -6 -10 -12
-16 -12 -11 0 4 -9 -2 -20 -13 -12 -12 -25 -18 -30 -15 -5 3 -11 1 -15 -5 -6
-10 6 -14 35 -11 13 2 13 1 0 -8 -17 -12 -43 1 -46 22 -1 10 4 14 17 12 13 -3
17 0 13 7 -5 7 -1 9 9 5 24 -9 21 0 -3 13 -11 6 -20 7 -19 3 3 -20 -2 -27 -11
-13 -7 11 -10 11 -10 2 0 -7 -4 -11 -9 -7 -5 3 -13 1 -16 -5 -4 -6 -1 -9 7 -8
7 2 12 -4 10 -12 -2 -8 5 -20 14 -27 21 -16 10 -17 -17 -2 -11 5 -16 15 -13
21 4 7 3 8 -4 4 -6 -4 -8 -14 -5 -23 4 -10 2 -14 -4 -10 -6 4 -13 0 -17 -8 -6
-18 3 -47 13 -40 4 2 8 -2 8 -10 0 -10 -4 -12 -12 -5 -7 5 -15 7 -18 3 -4 -3
1 -12 11 -20 15 -13 15 -13 -6 -3 -12 6 -27 8 -32 5 -6 -4 -9 -1 -8 5 2 7 -4
14 -14 15 -14 3 -13 -2 5 -32 20 -36 20 -36 0 -25 -11 6 -23 9 -26 5 -4 -3
-14 0 -24 8 -11 9 -14 10 -9 2 4 -8 2 -13 -5 -13 -7 0 -5 -6 6 -13 10 -8 15
-19 11 -25 -6 -11 -31 -11 -42 1 -4 3 3 4 15 2 13 -2 19 0 15 6 -3 6 -8 8 -12
5 -3 -3 -10 2 -17 11 -10 14 -12 13 -10 -8 1 -13 -4 -33 -11 -44 -7 -11 -12
-32 -10 -46 3 -27 -19 -37 -28 -12 -3 8 -2 11 3 8 5 -3 12 -1 16 4 3 6 -4 8
-16 6 -15 -3 -19 0 -15 10 3 9 0 12 -9 8 -8 -3 -13 -9 -10 -13 3 -5 1 -11 -5
-15 -6 -4 -8 -10 -5 -14 2 -5 -2 -17 -10 -27 -15 -19 -15 -18 -9 1 4 15 1 13
-10 -5 -13 -22 -13 -28 0 -47 8 -12 14 -26 14 -30 0 -4 -5 -1 -10 7 -9 13 -10
13 -11 0 -1 -8 -1 -18 0 -22 0 -5 -4 -8 -10 -8 -6 0 -8 9 -3 22 6 20 5 21 -9
9 -9 -7 -15 -17 -12 -21 3 -4 -2 -11 -11 -14 -10 -4 -13 -2 -8 7 16 28 37 46
48 40 6 -4 5 1 -3 10 -15 19 -26 23 -15 5 5 -7 2 -9 -9 -5 -11 4 -14 2 -11 -7
3 -8 -5 -21 -18 -30 -23 -17 -23 -17 -4 -31 23 -17 14 -20 -15 -5 -17 9 -19 7
-19 -18 0 -15 -6 -34 -12 -41 -11 -11 -10 -13 4 -8 10 3 20 2 22 -2 3 -5 -7
-8 -22 -7 -22 1 -26 -3 -24 -19 2 -16 1 -17 -7 -5 -12 17 -21 10 -24 -18 -2
-28 -10 -19 -12 12 0 14 4 22 9 19 5 -3 6 -1 2 5 -5 8 -1 10 11 6 15 -5 16 -4
3 5 -13 9 -13 11 0 12 8 1 18 1 23 0 4 0 7 2 8 6 0 5 2 19 5 33 3 21 2 22 -7
7 -6 -9 -14 -15 -20 -12 -5 4 -6 -2 -2 -11 4 -11 2 -15 -4 -11 -6 4 -13 0 -17
-8 -3 -9 -12 -12 -23 -9 -15 5 -16 4 -3 -5 12 -9 11 -11 -8 -11 -14 0 -21 -4
-16 -11 4 -8 0 -7 -15 1 -12 6 -19 15 -16 19 7 12 -20 33 -30 23 -5 -4 -5 -2
-2 4 6 11 -21 43 -30 36 -3 -2 -7 -1 -9 2 -2 3 -1 4 3 1 3 -3 13 1 21 8 13 10
14 9 7 -3 -7 -13 -6 -13 7 -2 11 9 18 9 21 2 3 -6 4 -5 3 2 -3 15 -56 19 -73
5 -9 -6 -13 -6 -13 2 0 6 5 11 11 11 5 0 7 5 4 10 -5 8 -12 7 -23 -2 -10 -8
-13 -9 -9 -1 4 6 -10 31 -32 57 -29 34 -39 52 -35 70 2 14 0 27 -6 31 -6 4 -7
-1 -3 -12 5 -15 3 -16 -8 -5 -17 15 -43 16 -33 0 4 -7 3 -8 -5 -4 -8 5 -9 12
-2 20 7 8 6 17 -1 26 -9 13 -9 13 -5 0 6 -20 -39 -55 -49 -38 -4 7 -4 10 1 6
12 -11 35 12 35 35 0 11 -3 17 -7 13 -5 -4 -8 -12 -8 -17 0 -5 -3 -9 -7 -9 -5
0 -11 0 -14 0 -4 0 -1 7 6 15 14 17 0 21 -16 5 -7 -7 -11 -6 -11 4 0 8 4 13 9
10 4 -3 8 -1 8 5 0 5 -5 11 -12 13 -8 3 -6 7 5 11 10 4 16 2 14 -5 -1 -7 6
-13 16 -14 12 -1 13 0 2 3 -8 2 -13 9 -9 14 3 5 10 6 16 3 7 -4 8 -2 4 5 -4 6
-12 8 -18 5 -8 -5 -9 -1 -5 12 7 18 6 18 -7 1 -8 -10 -17 -18 -20 -18 -3 1 -7
1 -8 0 -2 0 -11 -2 -21 -4 -14 -3 -16 0 -7 10 8 9 8 15 0 20 -5 3 -10 1 -10
-5 0 -6 -5 -8 -11 -4 -8 4 -7 9 2 15 7 4 17 5 21 3 4 -3 8 -1 8 4 0 16 -27 21
-39 9 -9 -9 -14 -8 -20 2 -11 16 -3 43 10 36 9 -6 3 35 -7 44 -4 3 -5 -1 -1
-11 3 -9 -2 -23 -12 -32 -20 -19 -31 -20 -31 -5 0 5 5 7 12 3 8 -5 9 -2 5 10
-4 11 -3 15 4 10 8 -5 8 -1 0 14 -8 15 -8 22 2 25 6 3 -4 4 -24 3 -23 -1 -36
2 -36 11 0 6 4 10 9 7 4 -3 8 -1 8 5 0 6 -15 8 -36 5 -30 -3 -35 -2 -25 9 6 8
8 17 4 20 -3 4 -1 7 5 7 7 0 12 5 12 10 0 6 -8 5 -20 -2 -14 -9 -16 -14 -7
-20 7 -4 8 -8 2 -8 -16 1 -49 29 -42 37 12 11 -24 42 -41 36 -14 -4 -15 -3 -2
5 8 6 17 9 21 6 4 -2 9 5 12 17 4 16 3 18 -8 9 -7 -6 -22 -13 -34 -15 -20 -4
-20 -2 -5 20 10 16 12 25 4 30 -6 3 -7 11 -4 17 4 7 2 8 -5 4 -6 -4 -8 -12 -5
-18 5 -7 1 -9 -9 -5 -11 4 -14 2 -10 -8 3 -8 10 -12 17 -8 6 4 5 -1 -3 -10
-14 -18 -22 -22 -20 -9 3 19 -2 31 -13 28 -7 -1 -10 -1 -5 1 14 8 7 19 -13 20
-13 1 -18 -2 -14 -9 4 -7 2 -8 -5 -4 -6 4 -9 11 -6 16 3 4 -1 11 -7 13 -10 4
-10 6 0 6 7 1 10 6 6 13 -4 7 -3 8 4 4 8 -5 11 1 10 18 -2 28 -23 42 -34 24
-4 -6 -3 -8 3 -5 6 4 14 0 17 -8 4 -13 2 -13 -14 -5 -13 7 -17 16 -13 28 6 15
5 15 -10 3 -10 -8 -17 -9 -17 -3 0 6 8 16 18 21 9 6 12 11 6 11 -6 0 -14 -3
-18 -7 -16 -16 -45 -12 -51 7 -4 11 -10 18 -15 15 -4 -3 -13 2 -20 10 -7 8 -9
15 -5 15 4 0 1 8 -6 17 -10 11 -10 14 -1 9 12 -7 17 6 6 17 -10 9 -34 -4 -27
-16 3 -6 1 -7 -6 -3 -6 4 -9 10 -7 14 2 4 -2 16 -10 26 -12 17 -16 17 -30 5
-16 -13 -16 -12 -4 8 9 14 18 19 25 13 6 -5 17 -5 25 0 11 7 12 10 2 10 -8 0
-10 5 -6 13 5 8 2 8 -9 -2 -9 -7 -17 -11 -17 -7 0 4 -11 -1 -25 -10 -15 -10
-25 -12 -25 -5 0 6 7 11 15 11 8 0 15 5 15 11 0 5 -5 7 -10 4 -6 -3 -10 -2
-10 4 0 5 5 11 11 13 6 2 -9 14 -32 26 -29 16 -45 19 -49 12 -4 -6 -7 2 -8 19
0 17 2 30 6 30 18 -3 32 2 32 10 0 13 -21 8 -52 -13 -16 -10 -25 -23 -21 -30
4 -6 -1 -5 -10 3 -16 13 -14 36 3 26 5 -3 12 0 16 6 4 8 3 9 -4 5 -7 -4 -12
-2 -12 3 0 6 -5 11 -11 11 -5 0 -7 -4 -4 -10 3 -5 1 -10 -4 -10 -8 0 -11 -330
-11 -1099 l1 -1099 24 0 c17 0 22 5 20 19 -3 14 1 16 18 12 12 -3 32 -6 44 -7
12 0 25 -4 29 -8 4 -4 13 -3 21 3 7 6 13 8 13 4 0 -4 8 -1 18 6 15 13 16 12 3
-3 -9 -12 -10 -18 -2 -18 6 0 14 7 17 15 4 8 11 15 16 15 6 0 6 -6 -2 -14 -8
-11 -9 -20 -1 -33 6 -10 11 -12 11 -5 0 6 5 12 11 12 5 0 7 -4 4 -10 -3 -6 1
-7 9 -4 9 3 16 15 16 26 0 10 -5 16 -10 13 -6 -4 -8 -10 -6 -14 3 -3 -4 -7
-15 -7 -18 0 -18 2 -5 12 9 6 14 13 11 15 -2 3 9 5 24 4 16 0 27 -3 24 -7 -2
-5 1 -8 7 -8 6 0 8 -5 4 -11 -4 -8 -9 -7 -16 2 -8 11 -9 11 -5 -1 2 -9 13 -14
25 -12 13 2 22 -2 22 -9 0 -7 3 -9 6 -6 4 4 2 12 -4 20 -6 7 -7 18 -3 26 7 10
10 9 16 -8 6 -21 15 -24 70 -23 16 1 33 -4 37 -11 4 -7 8 -7 8 -2 0 6 -4 16
-9 24 -8 13 -12 13 -28 0 -16 -12 -17 -12 -6 2 7 9 9 19 5 24 -4 4 3 3 15 -4
12 -6 29 -8 37 -5 9 3 16 1 16 -6 0 -6 -4 -8 -10 -5 -5 3 -10 2 -10 -4 0 -5
13 -9 29 -9 22 1 28 5 26 19 -3 14 1 16 18 12 12 -3 32 -6 44 -7 12 0 25 -4
29 -8 4 -4 13 -3 21 3 7 6 13 8 13 4 0 -4 8 -1 17 6 16 13 17 12 4 -3 -9 -12
-10 -18 -2 -18 6 0 14 7 17 15 4 8 11 15 16 15 6 0 6 -6 -2 -14 -8 -11 -9 -20
-1 -33 6 -10 11 -12 11 -5 0 6 5 12 11 12 5 0 7 -4 4 -10 -3 -6 1 -7 9 -4 9 3
16 15 16 26 0 10 -5 16 -10 13 -6 -4 -8 -10 -6 -14 3 -3 -4 -7 -15 -7 -18 0
-18 2 -5 12 9 6 14 13 11 15 -2 3 9 5 24 4 16 0 27 -3 24 -7 -2 -5 1 -8 7 -8
6 0 8 -5 4 -11 -4 -8 -9 -7 -16 2 -8 11 -9 11 -5 -1 2 -9 13 -14 25 -12 13 2
22 -2 22 -9 0 -7 3 -9 6 -6 4 4 2 12 -4 20 -6 7 -7 18 -3 26 7 10 10 9 16 -8
6 -21 15 -24 70 -23 16 1 33 -4 37 -11 4 -7 8 -7 8 -2 0 6 -4 16 -9 24 -8 13
-12 13 -28 0 -16 -12 -17 -12 -6 2 7 9 9 19 5 24 -4 4 3 3 15 -4 12 -6 29 -8
37 -5 9 3 16 1 16 -6 0 -6 -4 -8 -10 -5 -5 3 -10 2 -10 -4 0 -5 13 -9 29 -9
22 1 28 5 26 19 -3 14 1 16 18 12 12 -3 32 -6 44 -7 12 0 25 -4 29 -8 4 -4 13
-3 21 3 7 6 13 8 13 4 0 -4 8 -1 17 6 16 13 17 12 4 -4 -9 -11 -10 -17 -2 -17
6 0 14 7 17 15 4 8 11 15 16 15 6 0 6 -6 -2 -14 -8 -11 -9 -20 -1 -33 6 -10
11 -12 11 -5 0 6 5 12 11 12 5 0 7 -4 4 -10 -3 -6 1 -7 9 -4 9 3 16 15 16 26
0 10 -5 16 -10 13 -6 -4 -8 -10 -6 -14 3 -3 -4 -7 -15 -7 -18 0 -18 2 -5 12 9
6 14 13 11 15 -2 3 9 5 24 4 16 0 27 -3 24 -7 -2 -5 1 -8 7 -8 6 0 8 -5 4 -11
-4 -8 -9 -7 -16 2 -8 11 -9 11 -5 -1 2 -9 13 -14 25 -12 13 2 22 -2 22 -9 0
-7 3 -9 6 -6 4 4 2 12 -4 20 -6 7 -7 18 -3 26 7 10 10 9 16 -8 6 -21 15 -24
70 -23 16 1 33 -4 37 -11 4 -7 8 -7 8 -2 0 6 -4 16 -9 24 -8 13 -12 13 -28 0
-16 -12 -17 -12 -6 2 7 9 9 19 5 24 -4 4 3 3 15 -4 12 -6 29 -8 37 -5 9 3 16
1 16 -6 0 -6 -4 -8 -10 -5 -5 3 -10 2 -10 -4 0 -5 13 -9 29 -9 22 1 28 5 26
19 -3 14 1 16 18 12 12 -3 32 -6 44 -7 12 0 25 -4 29 -8 4 -4 13 -3 21 3 7 6
13 8 13 4 0 -4 8 -1 18 6 15 13 16 12 3 -4 -9 -11 -10 -17 -2 -17 6 0 14 7 17
15 4 8 11 15 16 15 6 0 6 -6 -2 -14 -8 -11 -9 -20 -1 -33 6 -10 11 -12 11 -5
0 6 5 12 11 12 5 0 7 -4 4 -10 -3 -6 1 -7 9 -4 9 3 16 15 16 26 0 10 -5 16
-10 13 -6 -4 -8 -10 -6 -14 3 -3 -4 -7 -15 -7 -18 0 -18 2 -5 12 9 6 14 13 11
15 -2 3 9 5 24 4 16 0 27 -3 24 -7 -2 -5 1 -8 7 -8 6 0 8 -5 4 -11 -4 -8 -9
-7 -16 2 -8 11 -9 11 -5 -1 2 -9 13 -14 25 -12 13 2 22 -2 22 -9 0 -7 3 -9 6
-6 4 4 2 12 -4 20 -6 7 -7 18 -3 26 7 10 10 9 16 -8 6 -21 15 -24 70 -23 16 1
33 -4 37 -11 4 -7 8 -7 8 -2 0 6 -4 16 -9 24 -8 13 -12 13 -28 0 -16 -12 -17
-12 -6 2 7 9 9 19 5 24 -4 4 3 3 15 -4 12 -6 29 -8 37 -5 9 3 16 1 16 -6 0 -6
-4 -8 -10 -5 -5 3 -10 2 -10 -4 0 -5 13 -9 29 -9 22 1 28 5 26 19 -3 14 1 16
18 12 12 -3 33 -6 47 -7 14 0 23 -5 20 -11 -6 -12 -33 -14 -40 -4 -3 4 -16 0
-29 -10 -17 -13 -19 -18 -7 -18 9 0 16 4 16 9 0 9 42 4 60 -7 6 -4 9 -3 8 2
-2 4 4 18 13 30 l16 23 13 -28 c7 -15 13 -31 11 -35 -1 -5 3 -6 9 -2 6 3 7 12
3 18 -4 7 -9 21 -10 32 -2 12 5 7 17 -15 10 -19 19 -30 20 -24 0 15 92 15 102
0 4 -6 6 -1 6 10 -2 22 -13 25 -35 11 -8 -5 -13 -4 -13 2 0 10 7 13 26 10 4 0
10 5 14 11 6 9 10 6 14 -8 5 -14 12 -19 23 -15 14 6 14 8 -3 20 -10 7 -13 13
-7 13 7 0 19 -7 27 -16 9 -8 16 -12 16 -8 0 3 6 2 13 -3 6 -6 20 -9 29 -8 10
2 20 0 23 -5 2 -4 -9 -6 -25 -5 -16 1 -27 -1 -24 -6 3 -5 10 -7 15 -4 5 4 9 0
9 -7 0 -8 3 -9 8 -3 11 16 37 11 34 -5 -2 -8 0 -11 5 -7 4 5 9 13 9 18 1 5 2
12 3 16 0 4 8 -2 16 -13 15 -19 15 -19 8 1 -6 17 -4 18 9 8 8 -7 19 -9 23 -5
5 4 5 -1 2 -10 -4 -10 -2 -18 3 -18 14 0 12 24 -2 38 -9 9 -9 12 1 12 7 0 10
4 7 8 -3 5 13 8 35 7 45 -2 50 3 51 48 1 17 3 26 5 19 3 -6 9 -9 15 -6 6 4 5
-2 -1 -15 -7 -11 -9 -21 -6 -21 3 0 -2 -12 -11 -27 l-16 -28 20 22 c11 12 22
20 25 17 3 -3 4 6 3 20 -2 16 3 31 13 37 14 9 14 10 -2 5 -11 -3 -20 0 -23 9
-4 8 -11 12 -17 8 -6 -3 -7 -1 -3 6 4 6 12 9 17 6 5 -4 9 -2 9 4 0 5 -5 13
-10 16 -6 4 -8 11 -4 16 3 5 10 7 15 4 5 -4 9 -3 9 0 0 10 -27 35 -32 30 -3
-3 -5 2 -5 10 0 10 4 12 13 4 6 -5 14 -6 16 -2 3 4 4 3 2 -3 -1 -6 4 -11 11
-11 10 0 11 5 4 19 -6 10 -14 16 -20 13 -5 -4 -9 -1 -9 5 0 6 -3 9 -7 7 -5 -3
-8 11 -9 31 -1 21 1 31 3 24 3 -6 9 -10 13 -7 5 3 7 12 4 20 -4 8 -9 13 -13
11 -3 -2 -6 9 -6 24 -1 16 3 26 7 24 4 -3 8 0 8 5 0 6 -5 11 -11 11 -8 0 -7 5
1 15 8 9 22 13 34 10 21 -5 21 -5 1 6 -12 5 -27 20 -35 32 -12 21 -12 21 5 7
17 -14 18 -13 12 3 -4 10 -7 21 -7 23 0 3 -3 3 -8 1 -4 -3 -7 8 -7 23 -1 16 3
26 7 24 4 -3 7 5 5 18 -2 18 2 23 21 21 12 -2 22 2 22 8 0 5 -4 8 -9 4 -5 -3
-16 1 -24 9 -8 8 -18 12 -22 8 -5 -4 -5 -1 -1 6 4 7 11 10 16 7 4 -3 11 5 14
18 6 22 7 22 21 3 8 -11 15 -15 15 -9 0 6 -7 16 -15 23 -8 6 -14 15 -13 18 0
4 0 16 -1 27 -1 16 -3 17 -11 5 -5 -8 -12 -11 -17 -7 -4 5 -1 12 7 17 11 7 19
4 29 -8 13 -16 13 -16 7 2 -5 15 -2 17 14 13 11 -3 18 -1 14 4 -3 5 -12 9 -20
9 -8 0 -14 5 -14 10 0 6 6 10 14 10 8 0 17 4 20 9 4 5 -4 7 -16 3 -19 -4 -21
-3 -11 9 16 20 -17 61 -39 48 -10 -5 -15 -4 -15 5 0 8 7 12 14 9 8 -3 13 0 11
8 -2 9 4 13 15 11 9 -2 17 2 17 8 0 6 -4 9 -9 5 -11 -6 -9 51 2 61 4 4 7 12 7
18 0 6 -5 3 -11 -6 -5 -10 -14 -18 -20 -18 -5 0 -3 10 4 23 14 23 15 49 2 80
-6 14 -3 16 11 11 18 -5 18 -5 0 6 -15 10 -20 9 -27 -1 -6 -9 -9 -10 -9 -2 0
6 4 14 10 18 5 3 7 12 4 20 -4 8 -9 13 -13 10 -4 -2 -8 2 -8 10 0 12 3 12 16
2 12 -10 14 -9 8 6 -4 10 -7 21 -7 23 0 3 -3 3 -8 1 -4 -3 -7 8 -7 23 -1 16 3
26 7 24 4 -3 8 0 8 5 0 6 -5 11 -11 11 -8 0 -7 5 1 15 7 9 21 13 31 10 11 -4
19 -2 19 5 0 6 -4 9 -9 5 -5 -3 -16 1 -24 9 -8 8 -18 12 -22 8 -5 -4 -5 -1 -1
6 4 7 12 9 18 6 8 -5 9 -1 3 12 -4 10 -8 29 -8 41 1 13 -2 21 -6 19 -4 -3 -7
4 -7 14 0 10 6 16 13 13 7 -3 10 -10 6 -17 -3 -6 -3 -8 2 -4 4 4 15 2 24 -5
14 -10 14 -10 3 5 -11 14 -11 18 2 25 13 7 13 10 -4 20 -16 11 -18 10 -15 -8
2 -11 0 -17 -6 -14 -5 4 -7 10 -4 15 3 5 -3 13 -12 19 -11 6 -13 11 -5 12 6 1
17 3 22 4 6 1 15 3 21 4 6 0 9 8 5 16 -3 8 0 15 7 15 8 0 7 4 -3 10 -8 5 -11
12 -7 16 3 4 12 3 20 -2 7 -5 6 -2 -3 6 -9 9 -15 21 -12 28 5 15 -14 16 -24 0
-5 -7 -2 -8 7 -3 11 6 11 5 2 -5 -6 -7 -9 -18 -7 -25 3 -7 -5 -15 -18 -18 -21
-6 -22 -5 -5 8 11 8 14 16 8 20 -7 4 -5 15 6 31 14 22 14 27 2 35 -8 4 -15 14
-15 21 -1 7 -3 15 -4 18 -7 19 -7 39 1 34 5 -3 7 -10 4 -15 -4 -5 -2 -9 3 -9
19 0 21 14 6 32 -13 13 -14 21 -6 31 8 10 8 17 1 24 -8 8 -8 13 0 17 13 8 12
9 15 -26 2 -15 -1 -25 -6 -22 -4 3 -8 0 -8 -5 0 -13 10 -14 30 -1 8 5 10 10 3
10 -15 0 -11 23 7 46 14 17 14 18 -2 5 -11 -8 -18 -9 -18 -3 0 6 4 13 9 16 5
4 8 14 6 24 -1 9 2 23 8 30 8 10 7 12 -3 10 -16 -4 -20 24 -5 35 7 4 7 10 0
15 -21 15 -16 34 7 27 23 -6 22 -6 -1 8 -18 11 -20 16 -10 20 8 3 9 6 3 6 -17
1 -40 -29 -28 -37 12 -9 14 -62 3 -62 -5 0 -9 -5 -9 -11 0 -5 4 -8 8 -5 4 2 8
-10 8 -28 0 -24 -5 -32 -19 -34 -19 -1 -19 -1 -1 14 14 12 15 14 3 11 -9 -3
-16 1 -16 8 0 8 7 11 16 7 13 -5 14 -3 3 10 -7 8 -9 24 -5 33 4 11 2 16 -4 12
-5 -3 -10 0 -10 8 0 12 3 12 16 2 12 -10 14 -9 8 6 -4 10 -7 21 -7 23 0 3 -5
2 -12 -2 -7 -4 -1 12 13 37 13 24 24 51 23 59 -1 8 -2 21 -3 29 -1 11 -4 11
-16 1 -13 -11 -13 -15 -3 -21 7 -5 9 -9 3 -9 -5 0 -4 -4 4 -9 9 -6 10 -11 2
-15 -6 -4 -11 -2 -11 4 0 6 -3 9 -8 7 -4 -3 -7 8 -7 23 -1 16 3 26 7 24 5 -3
11 1 14 10 3 8 13 12 22 10 13 -4 13 -3 -2 6 -15 10 -20 9 -27 -1 -6 -9 -9
-10 -9 -2 0 6 4 14 10 18 5 3 7 12 4 20 -4 8 -9 13 -13 10 -4 -2 -8 2 -8 10 0
12 3 12 16 2 12 -10 14 -9 8 6 -4 10 -7 21 -7 23 0 3 -3 3 -8 1 -4 -3 -7 8 -7
23 -1 16 3 26 7 24 4 -3 8 0 8 5 0 6 -5 11 -11 11 -8 0 -7 5 1 15 8 9 22 13
34 10 21 -5 21 -5 1 6 -12 5 -27 20 -35 32 -12 21 -12 21 5 7 17 -14 18 -13
12 3 -4 10 -7 21 -7 23 0 3 -3 3 -7 1 -5 -3 -8 12 -8 33 -1 29 3 36 14 32 9
-3 12 -1 7 6 -4 7 -3 12 2 12 6 0 9 -11 8 -24 0 -13 -4 -22 -8 -20 -4 2 -9 0
-13 -6 -3 -5 3 -10 13 -10 11 0 23 7 26 16 3 8 2 12 -4 9 -6 -3 -10 -1 -10 4
0 6 4 11 8 11 5 0 9 7 9 15 0 8 -3 12 -7 10 -4 -2 -15 1 -25 9 -17 12 -17 14
0 39 16 26 35 28 35 5 0 -6 -3 -8 -7 -5 -7 8 -33 -11 -33 -24 0 -5 7 -9 15 -9
9 0 12 6 8 17 -4 10 -2 14 5 9 17 -10 25 13 11 30 -17 21 -22 56 -9 64 5 3
-20 7 -56 8 -47 1 -63 -1 -58 -10 5 -7 3 -8 -7 -2 -18 11 -39 14 -40 6z m141
-12 c0 -5 -4 -10 -10 -10 -5 0 -10 5 -10 10 0 6 5 10 10 10 6 0 10 -4 10 -10z
m-54 -22 c3 -4 -1 -5 -10 -4 -8 1 -18 5 -22 8 -3 4 1 5 10 4 8 -1 18 -5 22 -8z
m24 -18 c0 -5 -5 -10 -11 -10 -5 0 -7 5 -4 10 3 6 8 10 11 10 2 0 4 -4 4 -10z
m28 -14 c-7 -8 -15 -12 -17 -11 -5 6 10 25 20 25 5 0 4 -6 -3 -14z m-223 -96
c3 -6 -1 -7 -9 -4 -18 7 -21 14 -7 14 6 0 13 -4 16 -10z m-54 -103 c-10 -9
-11 -8 -5 6 3 10 9 15 12 12 3 -3 0 -11 -7 -18z m246 -19 c2 -17 0 -19 -7 -8
-5 8 -6 18 -4 22 8 12 10 10 11 -14z m-310 -2 c0 -8 -6 -12 -15 -9 -11 5 -11
7 0 14 7 5 13 9 14 9 0 0 1 -6 1 -14z m-12 -26 c3 -5 1 -10 -4 -10 -6 0 -11 5
-11 10 0 6 2 10 4 10 3 0 8 -4 11 -10z m-45 -20 c0 -5 -5 -10 -11 -10 -5 0 -7
5 -4 10 3 6 8 10 11 10 2 0 4 -4 4 -10z m-2050 -15 c0 -1 -6 -7 -13 -13 -10
-8 -13 -6 -13 7 0 11 6 17 13 14 7 -3 13 -6 13 -8z m-20 -39 c0 -3 -4 -8 -10
-11 -5 -3 -10 -1 -10 4 0 6 5 11 10 11 6 0 10 -2 10 -4z m2046 -20 c2 -12 1
-13 -3 -1 -6 19 -23 20 -23 1 0 -8 -4 -17 -9 -20 -12 -8 -8 27 4 36 15 11 30
4 31 -16z m-120 -88 c-1 -7 -5 -19 -9 -25 -5 -7 -5 -18 -1 -25 4 -7 3 -8 -4
-4 -15 9 -4 66 13 66 2 0 2 -6 1 -12z m29 -17 c3 -5 2 -12 -3 -15 -5 -3 -9 1
-9 9 0 17 3 19 12 6z m492 -73 c-3 -8 -6 -5 -6 6 -1 11 2 17 5 13 3 -3 4 -12
1 -19z m-2202 -16 c-3 -3 -11 0 -18 7 -9 10 -8 11 6 5 10 -3 15 -9 12 -12z
m1525 -45 c0 -8 -7 -14 -15 -14 -11 0 -12 4 -4 14 6 7 13 13 15 13 2 0 4 -6 4
-13z m25 -17 c3 -5 1 -10 -4 -10 -6 0 -11 5 -11 10 0 6 2 10 4 10 3 0 8 -4 11
-10z m-1397 -105 c-3 -3 -9 2 -12 12 -6 14 -5 15 5 6 7 -7 10 -15 7 -18z m32
-41 c0 -8 -19 -13 -24 -6 -3 5 1 9 9 9 8 0 15 -2 15 -3z m2010 -4 c0 -5 -2
-10 -4 -10 -3 0 -8 5 -11 10 -3 6 -1 10 4 10 6 0 11 -4 11 -10z m-1902 -68
c-20 -27 -22 -28 -15 -9 4 12 1 17 -11 18 -14 0 -14 2 3 8 27 11 39 3 23 -17z
m1007 -2 c4 -6 -1 -7 -12 -3 -15 5 -16 3 -5 -8 6 -7 12 -18 12 -23 0 -6 -5 -3
-11 7 -6 9 -14 15 -20 12 -5 -4 -9 -2 -9 4 0 9 15 18 32 20 4 1 10 -3 13 -9z
m915 -71 c0 -5 -4 -9 -8 -9 -5 0 -9 7 -9 15 0 8 4 12 9 9 4 -3 8 -9 8 -15z
m-1023 -45 c-3 -3 -12 -4 -19 -1 -8 3 -5 6 6 6 11 1 17 -2 13 -5z m-17 -34 c0
-5 -5 -10 -11 -10 -5 0 -7 5 -4 10 3 6 8 10 11 10 2 0 4 -4 4 -10z m1066 -7
c-2 -9 -13 -17 -25 -18 l-23 -2 23 18 c29 23 28 23 25 2z m-1110 -6 c8 3 14 0
14 -7 0 -6 -4 -9 -9 -5 -6 3 -14 -2 -19 -11 -15 -27 -35 -8 -20 19 6 13 13 17
15 10 3 -7 11 -9 19 -6z m-596 -65 c0 -4 -9 -8 -20 -9 -16 -1 -17 1 -7 12 12
13 27 11 27 -3z m498 5 c-1 -2 4 -12 12 -23 14 -18 14 -18 -2 -5 -21 15 -24 2
-5 -18 8 -10 8 -12 0 -7 -6 3 -14 2 -18 -4 -4 -6 -11 -8 -16 -5 -16 11 -10 -7
9 -22 10 -9 11 -12 2 -7 -37 18 -40 26 -19 43 11 9 22 25 24 36 2 11 4 22 4
24 1 2 4 2 7 -1 3 -4 4 -8 2 -11z m-480 -72 c-3 -3 -9 2 -12 12 -6 14 -5 15 5
6 7 -7 10 -15 7 -18z m47 -35 c3 -6 -1 -7 -9 -4 -18 7 -21 14 -7 14 6 0 13 -4
16 -10z m1593 -45 c-3 -3 -9 2 -12 12 -6 14 -5 15 5 6 7 -7 10 -15 7 -18z
m-1240 -20 c-3 -3 -9 2 -12 12 -6 14 -5 15 5 6 7 -7 10 -15 7 -18z m-238 -55
c0 -5 -2 -10 -4 -10 -3 0 -8 5 -11 10 -3 6 -1 10 4 10 6 0 11 -4 11 -10z m74
-35 c-4 -8 -8 -15 -10 -15 -2 0 -4 7 -4 15 0 8 4 15 10 15 5 0 7 -7 4 -15z
m-54 1 c0 -3 -4 -8 -10 -11 -5 -3 -10 -1 -10 4 0 6 5 11 10 11 6 0 10 -2 10
-4z m1477 -105 c-10 -12 -9 -14 7 -8 16 6 17 5 6 -8 -9 -11 -9 -15 -1 -15 7 0
9 -5 5 -12 -6 -9 -9 -9 -12 0 -2 7 -7 10 -10 8 -4 -2 -7 8 -7 23 -1 16 5 28
12 28 10 0 10 -3 0 -16z m14 -99 c-10 -3 -10 -6 -1 -12 9 -5 9 -9 1 -14 -6 -4
-11 -2 -11 4 0 6 -4 9 -8 6 -4 -2 -8 3 -8 13 0 13 6 17 20 13 13 -4 16 -7 7
-10z m18 -106 c7 -9 8 -17 2 -20 -5 -3 -8 -16 -7 -29 2 -17 -2 -22 -21 -22
-20 0 -21 2 -8 12 11 8 13 13 5 18 -8 5 -6 13 7 27 18 20 18 21 -7 14 -19 -6
-21 -5 -10 3 20 14 25 14 39 -3z m-49 -136 c0 -5 -2 -10 -4 -10 -3 0 -8 5 -11
10 -3 6 -1 10 4 10 6 0 11 -4 11 -10z m28 -14 c-7 -8 -15 -12 -17 -11 -5 6 10
25 20 25 5 0 4 -6 -3 -14z m-31 -218 c2 -17 0 -19 -7 -8 -5 8 -6 18 -4 22 8
12 10 10 11 -14z m0 -273 c0 -8 -4 -12 -9 -9 -5 3 -6 10 -3 15 9 13 12 11 12
-6z m-2423 -101 c3 -8 2 -12 -4 -9 -6 3 -10 10 -10 16 0 14 7 11 14 -7z m480
0 c3 -8 2 -12 -4 -9 -6 3 -10 10 -10 16 0 14 7 11 14 -7z m480 0 c3 -8 2 -12
-4 -9 -6 3 -10 10 -10 16 0 14 7 11 14 -7z m480 0 c3 -8 2 -12 -4 -9 -6 3 -10
10 -10 16 0 14 7 11 14 -7z m480 0 c3 -8 2 -12 -4 -9 -6 3 -10 10 -10 16 0 14
7 11 14 -7z m320 -15 c-3 -5 -11 -9 -17 -8 -8 0 -8 2 1 6 10 4 10 8 0 21 -12
15 -11 16 4 3 10 -7 15 -17 12 -22z m156 21 c0 -5 -5 -10 -11 -10 -5 0 -7 5
-4 10 3 6 8 10 11 10 2 0 4 -4 4 -10z m-2139 -34 c-7 -8 -19 -12 -28 -9 -11 5
-12 7 -2 14 7 4 17 5 21 3 4 -3 8 0 8 7 0 7 3 9 6 6 4 -4 1 -13 -5 -21z m480
0 c-7 -8 -19 -12 -28 -9 -11 5 -12 7 -2 14 7 4 17 5 21 3 4 -3 8 0 8 7 0 7 3
9 6 6 4 -4 1 -13 -5 -21z m480 0 c-7 -8 -19 -12 -28 -9 -11 5 -12 7 -2 14 7 4
17 5 21 3 4 -3 8 0 8 7 0 7 3 9 6 6 4 -4 1 -13 -5 -21z m480 0 c-7 -8 -19 -12
-28 -9 -11 5 -12 7 -2 14 7 4 17 5 21 3 4 -3 8 0 8 7 0 7 3 9 6 6 4 -4 1 -13
-5 -21z m309 -11 c0 -5 -5 -3 -10 5 -5 8 -10 20 -10 25 0 6 5 3 10 -5 5 -8 10
-19 10 -25z m51 13 c-19 -23 -22 -23 -14 0 6 15 5 16 -12 2 -10 -8 -16 -10
-12 -3 4 6 1 13 -5 15 -7 3 3 5 23 5 34 0 35 -1 20 -19z m149 12 c0 -5 -2 -10
-4 -10 -3 0 -8 5 -11 10 -3 6 -1 10 4 10 6 0 11 -4 11 -10z m64 -12 c-1 -13
-3 -25 -3 -27 -1 -3 -6 0 -13 7 -8 8 -8 15 2 27 16 20 17 19 14 -7z m29 2 c-3
-12 -8 -19 -11 -16 -5 6 5 36 12 36 2 0 2 -9 -1 -20z m23 -4 c0 -14 -5 -21 -9
-17 -4 4 -5 15 -1 24 9 24 12 21 10 -7z"/>
<path d="M2601 966 c-9 -11 -9 -16 1 -22 7 -4 10 -4 6 1 -4 4 -3 14 3 22 6 7
9 13 6 13 -2 0 -10 -6 -16 -14z"/>
<path d="M2414 2601 c0 -11 4 -17 8 -15 4 3 8 12 8 20 0 8 -4 14 -8 14 -4 0
-8 -9 -8 -19z"/>
<path d="M2387 2570 c18 -19 40 -21 54 -4 8 10 8 14 0 14 -6 0 -11 -4 -11 -9
0 -11 -19 -9 -40 3 -12 7 -13 6 -3 -4z"/>
<path d="M2310 2547 c0 -2 6 -10 14 -16 11 -9 16 -9 22 1 4 7 4 10 -1 6 -4 -4
-14 -3 -22 3 -7 6 -13 9 -13 6z"/>
<path d="M2281 2446 c-9 -10 -7 -16 6 -27 10 -7 15 -9 11 -5 -4 5 0 15 10 23
16 12 16 13 -2 6 -13 -4 -17 -3 -12 5 10 16 1 15 -13 -2z"/>
<path d="M2596 2443 c6 -4 10 -18 9 -30 -1 -12 2 -20 6 -17 4 2 9 -2 12 -8 3
-7 4 -3 4 10 -1 12 -5 22 -9 22 -4 0 -7 5 -5 11 1 6 -5 14 -13 16 -10 3 -11 2
-4 -4z"/>
<path d="M91 2381 c-9 -6 -8 -10 6 -15 10 -4 18 -6 18 -4 1 2 12 -4 26 -14 20
-13 26 -13 26 -3 0 8 -4 12 -7 10 -4 -3 -19 4 -32 14 -14 12 -29 16 -37 12z"/>
<path d="M2594 2344 c4 -9 1 -23 -5 -30 -9 -11 -7 -14 9 -14 11 0 23 7 26 16
3 8 2 12 -4 9 -6 -3 -10 -1 -10 4 0 6 6 11 13 11 8 0 7 4 -3 10 -22 15 -33 12
-26 -6z"/>
<path d="M190 2310 c-9 -6 -10 -10 -3 -10 6 0 15 5 18 10 8 12 4 12 -15 0z"/>
<path d="M2596 2283 c6 -4 10 -17 9 -29 -1 -11 4 -21 10 -21 6 0 12 6 12 14 0
7 -4 13 -9 13 -4 0 -7 5 -5 11 1 6 -5 14 -13 16 -10 3 -11 2 -4 -4z"/>
<path d="M210 2248 c0 -8 16 -12 34 -9 4 1 15 -4 24 -11 13 -12 14 -11 2 8
-12 19 -60 29 -60 12z"/>
<path d="M295 2211 c3 -5 -4 -16 -15 -24 -11 -7 -17 -17 -13 -20 8 -9 44 33
37 44 -3 5 -7 9 -10 9 -3 0 -3 -4 1 -9z"/>
<path d="M2610 2210 c0 -5 5 -10 10 -10 6 0 10 5 10 10 0 6 -4 10 -10 10 -5 0
-10 -4 -10 -10z"/>
<path d="M300 2151 c9 -17 15 -19 30 -11 22 12 27 24 8 17 -7 -2 -21 0 -31 5
-16 8 -17 7 -7 -11z"/>
<path d="M1954 2139 c0 -10 4 -19 8 -19 4 0 8 6 8 14 0 8 -4 17 -8 20 -4 2 -8
-4 -8 -15z"/>
<path d="M390 2126 c7 -7 13 -7 20 0 6 6 3 10 -10 10 -13 0 -16 -4 -10 -10z"/>
<path d="M417 2055 c-16 -23 -16 -24 -1 -18 10 4 15 2 11 -3 -3 -6 3 -11 14
-11 10 -1 19 2 19 8 0 5 -5 8 -11 7 -6 -2 -14 3 -17 11 -3 8 0 11 7 7 7 -5 9
-1 5 8 -7 20 -5 20 -27 -9z"/>
<path d="M1869 2053 c-13 -16 -12 -17 4 -4 9 7 17 15 17 17 0 8 -8 3 -21 -13z"/>
<path d="M501 1977 c-13 -21 -12 -21 5 -5 10 10 16 20 13 22 -3 3 -11 -5 -18
-17z"/>
<path d="M553 1965 c0 -8 4 -12 9 -9 5 3 6 10 3 15 -9 13 -12 11 -12 -6z"/>
<path d="M2650 1969 c0 -5 5 -7 10 -4 6 3 10 8 10 11 0 2 -4 4 -10 4 -5 0 -10
-5 -10 -11z"/>
<path d="M543 1922 c10 -10 14 -21 11 -24 -3 -3 -1 -9 5 -12 6 -4 9 6 9 24 -1
21 -4 27 -9 18 -7 -10 -9 -10 -9 0 0 6 -5 12 -12 12 -6 0 -4 -7 5 -18z"/>
<path d="M2646 1908 c3 -5 10 -6 15 -3 13 9 11 12 -6 12 -8 0 -12 -4 -9 -9z"/>
<path d="M623 1873 c-7 -2 -13 -9 -13 -15 0 -6 6 -6 15 2 8 6 20 8 26 4 8 -4
9 -3 5 4 -8 13 -13 14 -33 5z"/>
<path d="M2630 1861 c0 -5 7 -12 16 -15 14 -5 15 -4 4 9 -14 17 -20 19 -20 6z"/>
<path d="M2610 1810 c0 -5 5 -10 10 -10 6 0 10 5 10 10 0 6 -4 10 -10 10 -5 0
-10 -4 -10 -10z"/>
<path d="M2600 1769 c-14 -25 -7 -34 17 -24 12 5 14 9 6 12 -7 3 -13 9 -13 15
0 6 7 7 16 4 8 -3 12 -2 9 4 -10 16 -23 12 -35 -11z"/>
<path d="M1596 1763 c-8 -20 9 -40 19 -22 6 8 4 10 -5 4 -9 -5 -10 -2 -5 14 8
25 0 29 -9 4z"/>
<path d="M752 1751 c-11 -7 -11 -9 0 -14 9 -3 15 1 15 9 0 8 -1 14 -1 14 -1 0
-7 -4 -14 -9z"/>
<path d="M2643 1748 c-20 -26 -22 -35 -8 -35 8 0 12 4 9 9 -3 5 0 15 6 23 7 8
10 15 7 15 -2 0 -9 -6 -14 -12z"/>
<path d="M715 1730 c3 -5 8 -10 11 -10 2 0 4 5 4 10 0 6 -5 10 -11 10 -5 0 -7
-4 -4 -10z"/>
<path d="M790 1732 c0 -5 7 -9 15 -9 8 0 12 4 9 9 -3 4 -9 8 -15 8 -5 0 -9 -4
-9 -8z"/>
<path d="M1516 1731 c-7 -10 20 -34 41 -37 12 -2 13 0 4 9 -7 7 -17 12 -24 12
-7 1 -11 6 -9 13 2 14 -4 16 -12 3z"/>
<path d="M779 1706 c0 -1 -2 -9 -4 -19 -3 -18 -3 -18 16 -1 10 9 19 18 19 19
0 2 -29 3 -31 1z"/>
<path d="M2620 1586 c0 -2 7 -7 16 -10 8 -3 12 -2 9 4 -6 10 -25 14 -25 6z"/>
<path d="M973 1543 c4 -6 0 -13 -7 -16 -8 -3 -17 -1 -19 6 -2 7 -7 9 -11 6 -4
-4 10 -24 31 -45 21 -21 37 -43 35 -49 -2 -5 0 -7 4 -2 4 4 15 0 25 -9 10 -9
19 -11 23 -5 4 5 2 12 -4 16 -5 3 -10 3 -10 0 0 -3 -6 0 -14 7 -10 10 -11 15
-2 21 7 6 4 7 -6 3 -20 -6 -37 19 -33 46 2 10 -2 21 -7 25 -6 3 -8 1 -5 -4z
m4 -38 c0 -8 -4 -12 -9 -9 -4 3 -8 9 -8 15 0 5 4 9 8 9 5 0 9 -7 9 -15z"/>
<path d="M2595 1500 c-8 -13 4 -32 15 -25 5 3 13 -3 19 -12 6 -10 11 -13 11
-6 0 6 -5 15 -10 18 -6 4 -8 10 -5 15 3 4 -2 10 -10 14 -8 3 -17 1 -20 -4z"/>
<path d="M1270 1455 c-11 -13 -10 -14 4 -9 9 3 16 10 16 15 0 13 -6 11 -20 -6z"/>
<path d="M1235 1450 c-3 -5 -1 -10 4 -10 6 0 11 5 11 10 0 6 -2 10 -4 10 -3 0
-8 -4 -11 -10z"/>
<path d="M2607 1447 c-3 -8 1 -14 8 -14 7 0 11 6 8 14 -3 7 -6 13 -8 13 -2 0
-5 -6 -8 -13z"/>
<path d="M2594 1384 c4 -9 1 -23 -5 -30 -9 -11 -7 -14 9 -14 11 0 23 7 26 16
3 8 2 12 -4 9 -6 -3 -10 -1 -10 4 0 6 6 11 13 11 8 0 7 4 -3 10 -22 15 -33 12
-26 -6z"/>
<path d="M1074 1381 c4 -6 16 -16 28 -22 15 -8 18 -8 14 0 -4 6 -16 16 -28 22
-15 8 -18 8 -14 0z"/>
<path d="M1128 1349 c-9 -16 -14 -29 -9 -29 8 0 34 50 29 56 -2 1 -11 -11 -20
-27z"/>
<path d="M2596 1323 c6 -4 10 -17 9 -29 -1 -11 4 -21 10 -21 6 0 12 6 12 14 0
7 -4 13 -9 13 -4 0 -7 5 -5 11 1 6 -5 14 -13 16 -10 3 -11 2 -4 -4z"/>
<path d="M2610 1250 c0 -5 5 -10 10 -10 6 0 10 5 10 10 0 6 -4 10 -10 10 -5 0
-10 -4 -10 -10z"/>
<path d="M2630 1090 c0 -5 5 -10 11 -10 5 0 7 5 4 10 -3 6 -8 10 -11 10 -2 0
-4 -4 -4 -10z"/>
<path d="M2628 1023 c6 -2 9 -10 6 -15 -4 -7 -2 -8 5 -4 13 9 5 26 -12 25 -9
0 -8 -2 1 -6z"/>
<path d="M2607 807 c-3 -8 1 -14 8 -14 7 0 11 6 8 14 -3 7 -6 13 -8 13 -2 0
-5 -6 -8 -13z"/>
<path d="M2594 744 c4 -9 1 -23 -5 -30 -9 -11 -7 -14 9 -14 11 0 23 7 26 16 3
8 2 12 -4 9 -6 -3 -10 -1 -10 4 0 6 6 11 13 11 8 0 7 4 -3 10 -22 15 -33 12
-26 -6z"/>
<path d="M2596 683 c6 -4 10 -18 9 -30 -1 -12 2 -20 6 -17 4 2 9 -2 12 -8 3
-7 4 -3 4 10 -1 12 -5 22 -9 22 -4 0 -7 5 -5 11 1 6 -5 14 -13 16 -10 3 -11 2
-4 -4z"/>
<path d="M2594 584 c4 -9 1 -23 -5 -30 -9 -11 -7 -14 9 -14 11 0 23 7 26 16 3
8 2 12 -4 9 -6 -3 -10 -1 -10 4 0 6 6 11 13 11 8 0 7 4 -3 10 -22 15 -33 12
-26 -6z"/>
<path d="M2598 522 c17 -11 15 -22 -5 -44 -15 -17 -14 -18 4 -18 23 0 40 30
22 40 -6 4 -10 11 -9 16 1 5 -4 10 -12 12 -11 3 -11 2 0 -6z"/>
<path d="M2628 433 c7 -3 16 -2 19 1 4 3 -2 6 -13 5 -11 0 -14 -3 -6 -6z"/>
<path d="M2598 347 c8 -9 11 -20 8 -25 -3 -5 1 -9 9 -9 16 0 4 31 -18 43 -8 6
-8 3 1 -9z"/>
<path d="M56 222 c-4 -7 -2 -12 5 -12 7 0 5 -6 -5 -13 -16 -12 -16 -14 -2 -14
9 0 16 4 16 9 0 9 42 4 59 -6 5 -4 8 1 7 9 -3 23 -14 29 -31 15 -11 -9 -15 -9
-15 -1 0 7 -4 10 -9 7 -5 -4 -11 -1 -13 6 -3 9 -6 9 -12 0z"/>
<path d="M536 222 c-4 -7 -2 -12 5 -12 7 0 5 -6 -5 -13 -16 -12 -16 -14 -2
-14 9 0 16 4 16 9 0 9 42 4 59 -6 5 -4 8 1 7 9 -3 23 -14 29 -31 15 -11 -9
-15 -9 -15 -1 0 7 -4 10 -9 7 -5 -4 -11 -1 -13 6 -3 9 -6 9 -12 0z"/>
<path d="M1016 222 c-4 -7 -2 -12 5 -12 7 0 5 -6 -5 -13 -16 -12 -16 -14 -2
-14 9 0 16 4 16 9 0 9 42 4 59 -6 5 -4 8 1 7 9 -3 23 -14 29 -31 15 -11 -9
-15 -9 -15 -1 0 7 -4 10 -9 7 -5 -4 -11 -1 -13 6 -3 9 -6 9 -12 0z"/>
<path d="M1496 222 c-4 -7 -2 -12 5 -12 7 0 5 -6 -5 -13 -16 -12 -16 -14 -2
-14 9 0 16 4 16 9 0 9 42 4 59 -6 5 -4 8 1 7 9 -3 23 -14 29 -31 15 -11 -9
-15 -9 -15 -1 0 7 -4 10 -9 7 -5 -4 -11 -1 -13 6 -3 9 -6 9 -12 0z"/>
<path d="M1975 220 c-3 -5 -1 -10 4 -10 6 0 11 5 11 10 0 6 -2 10 -4 10 -3 0
-8 -4 -11 -10z"/>
<path d="M155 210 c-3 -5 1 -10 10 -10 9 0 13 5 10 10 -3 6 -8 10 -10 10 -2 0
-7 -4 -10 -10z"/>
<path d="M635 210 c-3 -5 1 -10 10 -10 9 0 13 5 10 10 -3 6 -8 10 -10 10 -2 0
-7 -4 -10 -10z"/>
<path d="M1115 210 c-3 -5 1 -10 10 -10 9 0 13 5 10 10 -3 6 -8 10 -10 10 -2
0 -7 -4 -10 -10z"/>
<path d="M1595 210 c-3 -5 1 -10 10 -10 9 0 13 5 10 10 -3 6 -8 10 -10 10 -2
0 -7 -4 -10 -10z"/>
<path d="M2075 210 c-3 -5 -1 -10 4 -10 6 0 11 5 11 10 0 6 -2 10 -4 10 -3 0
-8 -4 -11 -10z"/>
<path d="M2510 209 c0 -5 -5 -7 -12 -3 -6 4 -4 -3 5 -16 15 -22 54 -40 41 -19
-3 5 -9 7 -14 4 -13 -8 -20 21 -7 34 8 8 8 11 -1 11 -7 0 -12 -5 -12 -11z"/>
<path d="M2536 205 c-3 -8 -1 -15 4 -15 6 0 10 7 10 15 0 8 -2 15 -4 15 -2 0
-6 -7 -10 -15z"/>
<path d="M2294 198 c-4 -5 -3 -12 0 -15 3 -4 6 0 6 7 0 10 4 8 13 -4 12 -16
13 -16 13 2 0 19 -22 26 -32 10z"/>
<path d="M193 185 c0 -8 4 -12 9 -9 5 3 6 10 3 15 -9 13 -12 11 -12 -6z"/>
<path d="M673 185 c0 -8 4 -12 9 -9 5 3 6 10 3 15 -9 13 -12 11 -12 -6z"/>
<path d="M1153 185 c0 -8 4 -12 9 -9 5 3 6 10 3 15 -9 13 -12 11 -12 -6z"/>
<path d="M1633 185 c0 -8 4 -12 9 -9 5 3 6 10 3 15 -9 13 -12 11 -12 -6z"/>
<path d="M11 177 c-8 -10 -7 -14 2 -14 8 0 14 6 14 14 0 7 -1 13 -2 13 -2 0
-8 -6 -14 -13z"/>
<path d="M171 174 c0 -11 3 -14 6 -6 3 7 2 16 -1 19 -3 4 -6 -2 -5 -13z"/>
<path d="M357 179 c7 -7 15 -10 18 -7 3 3 -2 9 -12 12 -14 6 -15 5 -6 -5z"/>
<path d="M651 174 c0 -11 3 -14 6 -6 3 7 2 16 -1 19 -3 4 -6 -2 -5 -13z"/>
<path d="M837 179 c7 -7 15 -10 18 -7 3 3 -2 9 -12 12 -14 6 -15 5 -6 -5z"/>
<path d="M1131 174 c0 -11 3 -14 6 -6 3 7 2 16 -1 19 -3 4 -6 -2 -5 -13z"/>
<path d="M1317 179 c7 -7 15 -10 18 -7 3 3 -2 9 -12 12 -14 6 -15 5 -6 -5z"/>
<path d="M1611 174 c0 -11 3 -14 6 -6 3 7 2 16 -1 19 -3 4 -6 -2 -5 -13z"/>
<path d="M1797 179 c7 -7 15 -10 18 -7 3 3 -2 9 -12 12 -14 6 -15 5 -6 -5z"/>
<path d="M2091 174 c0 -11 3 -14 6 -6 3 7 2 16 -1 19 -3 4 -6 -2 -5 -13z"/>
<path d="M2266 173 c-6 -14 -5 -15 5 -6 7 7 10 15 7 18 -3 3 -9 -2 -12 -12z"/>
<path d="M2375 161 c-3 -5 -2 -12 3 -15 5 -3 9 1 9 9 0 17 -3 19 -12 6z"/>
</g>
</svg>
